<?xml version="1.0" encoding="utf-8"?>
<!-- Generator: Adobe Illustrator 16.0.0, SVG Export Plug-In . SVG Version: 6.00 Build 0)  -->
<!DOCTYPE svg PUBLIC "-//W3C//DTD SVG 1.1//EN" "http://www.w3.org/Graphics/SVG/1.1/DTD/svg11.dtd">
<svg version="1.1" id="Layer_1" xmlns="http://www.w3.org/2000/svg" xmlns:xlink="http://www.w3.org/1999/xlink" x="0px" y="0px"
	 width="512px" height="512px" viewBox="0 0 512 512" enable-background="new 0 0 512 512" xml:space="preserve">
<g>
	<path d="M404.97,340.53C388.6,334.01,370.05,328.7,350,324.7c-3.46,6.49-6.91,12.63-10.29,18.38c21.29,3.88,40.87,9.27,57.87,16.04
		c34.24,13.62,53.87,31.3,53.87,48.51s-19.63,34.89-53.87,48.51c-37.66,14.99-87.94,23.24-141.58,23.24
		c-53.64,0-103.92-8.25-141.58-23.24c-34.24-13.62-53.87-31.3-53.87-48.51s19.63-34.89,53.87-48.51
		c17-6.771,36.58-12.16,57.87-16.04c-3.38-5.75-6.83-11.89-10.29-18.38c-20.05,4-38.6,9.31-54.97,15.83
		c-42.87,17.06-66.48,40.89-66.48,67.1s23.61,50.04,66.48,67.101C146.98,490.63,199.89,499.38,256,499.38
		c56.11,0,109.02-8.75,148.97-24.649c42.87-17.061,66.48-40.891,66.48-67.101S447.84,357.59,404.97,340.53z"/>
</g>
<path d="M342.08,43.25C319.28,23.5,288.71,12.62,256,12.62s-63.28,10.88-86.08,30.63c-25.91,22.45-39.61,54.31-39.61,92.14
	c0,79.91,32.21,151.54,59.22,197.56c29.17,49.689,58,80.29,59.22,81.56c1.88,1.99,4.51,3.12,7.25,3.12s5.37-1.13,7.25-3.12
	c1.22-1.27,30.05-31.87,59.22-81.56C349.48,286.93,381.69,215.3,381.69,135.39C381.69,97.56,367.99,65.7,342.08,43.25z M256,183.94
	c-26.25,0-47.52-21.28-47.52-47.53c0-26.24,21.27-47.52,47.52-47.52s47.52,21.28,47.52,47.52
	C303.52,162.66,282.25,183.94,256,183.94z"/>
</svg>
