<?xml version="1.0" encoding="utf-8"?>
<!-- Generator: Adobe Illustrator 16.0.0, SVG Export Plug-In . SVG Version: 6.00 Build 0)  -->
<!DOCTYPE svg PUBLIC "-//W3C//DTD SVG 1.1//EN" "http://www.w3.org/Graphics/SVG/1.1/DTD/svg11.dtd">
<svg version="1.1" id="Layer_1" xmlns="http://www.w3.org/2000/svg" xmlns:xlink="http://www.w3.org/1999/xlink" x="0px" y="0px"
	 width="512px" height="512px" viewBox="0 0 512 512" enable-background="new 0 0 512 512" xml:space="preserve">
<g>
	<path d="M186.98,256L22.44,386.09c-0.69-2.01-1.06-4.17-1.06-6.41V132.32c0-2.24,0.37-4.4,1.06-6.41L186.98,256z"/>
	<path d="M308.89,268.75L474.1,399.37c-1.13,0.21-2.29,0.31-3.479,0.31H41.38c-1.19,0-2.35-0.1-3.48-0.31l165.21-130.62l46.67,36.9
		c0.04,0.029,0.09,0.06,0.13,0.1c0.24,0.18,0.47,0.34,0.71,0.5c0.1,0.06,0.2,0.12,0.3,0.18c0.21,0.12,0.42,0.23,0.63,0.34
		c0.09,0.04,0.18,0.091,0.27,0.131c0.62,0.29,1.27,0.51,1.92,0.659c0.07,0.011,0.14,0.03,0.2,0.04c0.27,0.061,0.55,0.101,0.82,0.141
		c0.08,0.01,0.16,0.02,0.23,0.02c0.34,0.04,0.67,0.061,1,0.061c0.01,0,0.01,0,0.01,0s0,0,0.01,0c0.33,0,0.66-0.021,1-0.061
		c0.07,0,0.15-0.01,0.23-0.02c0.27-0.04,0.55-0.08,0.819-0.141c0.061-0.01,0.131-0.029,0.2-0.04c0.65-0.149,1.29-0.369,1.92-0.659
		c0.09-0.04,0.181-0.091,0.271-0.131c0.21-0.109,0.42-0.22,0.62-0.34c0.109-0.06,0.21-0.12,0.31-0.18c0.24-0.16,0.47-0.32,0.69-0.49
		c0.05-0.04,0.109-0.069,0.16-0.109L308.89,268.75z"/>
	<path d="M256,285.07L37.9,112.63c1.13-0.21,2.29-0.31,3.48-0.31h429.24c1.189,0,2.35,0.1,3.479,0.31L256,285.07z"/>
	<path d="M490.62,132.32V379.68c0,2.24-0.37,4.4-1.061,6.41L325.02,256l164.54-130.09C490.25,127.92,490.62,130.08,490.62,132.32z"
		/>
</g>
</svg>
